<?xml version="1.0" standalone="no"?>
<!DOCTYPE svg PUBLIC "-//W3C//DTD SVG 20010904//EN"
 "http://www.w3.org/TR/2001/REC-SVG-20010904/DTD/svg10.dtd">
<svg version="1.0" xmlns="http://www.w3.org/2000/svg"
 width="200.000000pt" height="200.000000pt" viewBox="0 0 200.000000 200.000000"
 preserveAspectRatio="xMidYMid meet">

<g transform="translate(0.000000,200.000000) scale(0.100000,-0.100000)"
fill="#000000" stroke="none">
<path d="M670 1651 c-45 -23 -80 -75 -80 -117 0 -19 4 -34 8 -34 15 0 52 46
52 63 0 26 37 57 68 57 29 0 63 -29 76 -63 9 -28 -25 -95 -86 -167 -58 -68
-78 -100 -78 -122 0 -7 9 2 20 20 11 18 51 62 89 98 72 67 111 130 111 177 0
89 -93 135 -180 88z"/>
<path d="M1718 1602 c-37 -35 -42 -45 -46 -96 -4 -48 -1 -62 21 -95 32 -48 98
-77 152 -67 76 15 136 102 121 179 -14 73 -73 117 -156 117 -45 0 -55 -4 -92
-38z m145 14 c108 -46 116 -191 13 -240 -90 -42 -186 15 -186 111 0 82 48 135
128 142 7 0 27 -5 45 -13z"/>
<path d="M1753 1533 c12 -3 17 -16 19 -46 l1 -42 4 40 c3 22 10 43 16 47 7 4
-4 7 -23 7 -19 -1 -27 -3 -17 -6z"/>
<path d="M1821 1494 c1 -41 2 -44 8 -19 l7 30 7 -28 c9 -34 23 -28 33 16 l8
32 7 -40 6 -40 2 48 c1 56 -13 61 -30 10 l-12 -38 -11 32 c-18 51 -26 50 -25
-3z"/>
<path d="M1020 1537 c0 -76 -68 -138 -165 -152 -56 -7 -129 -37 -158 -63 -17
-15 -57 -83 -57 -96 0 -3 11 5 25 18 32 29 81 50 181 76 121 32 170 80 186
181 4 20 2 42 -3 50 -6 10 -9 6 -9 -14z"/>
<path d="M571 1512 c0 -8 -11 -28 -23 -44 l-21 -30 22 11 c26 14 35 32 28 58
-3 10 -5 12 -6 5z"/>
<path d="M1042 1457 c-4 -115 -47 -165 -166 -191 -74 -17 -196 -70 -196 -86 0
-16 127 -43 172 -36 87 13 198 81 231 141 7 13 -2 9 -27 -12 -44 -40 -107 -73
-137 -73 -18 0 -14 6 21 29 49 33 97 99 105 145 4 17 5 56 2 86 l-3 55 -2 -58z"/>
<path d="M1112 1134 c-66 -33 -114 -88 -162 -189 -55 -115 -60 -146 -6 -41 88
174 199 242 271 166 46 -48 115 -32 115 28 0 66 -119 86 -218 36z"/>
<path d="M54 1041 c-44 -27 -60 -77 -40 -124 12 -29 27 -41 90 -71 41 -20 84
-46 96 -58 28 -31 26 -72 -6 -97 -36 -28 -8 -28 47 -1 74 38 102 128 58 184
-12 15 -57 45 -100 66 -61 31 -80 46 -85 67 -5 19 -2 30 11 40 17 12 16 13
-11 13 -16 0 -43 -9 -60 -19z"/>
<path d="M238 1040 c19 -12 41 -38 52 -63 l20 -42 0 59 c0 45 -3 57 -12 48 -8
-8 -20 -7 -46 3 -48 21 -53 19 -14 -5z"/>
<path d="M355 1001 c14 -6 42 -58 90 -170 l69 -161 33 0 c30 0 36 4 53 46 22
51 24 57 12 50 -10 -6 -92 189 -92 216 0 9 10 19 23 21 12 2 -30 5 -93 5 -69
0 -107 -3 -95 -7z"/>
<path d="M632 1003 c9 -2 22 -21 28 -41 7 -20 24 -64 39 -97 15 -33 40 -91 56
-128 28 -67 29 -68 63 -65 31 3 36 8 53 53 21 54 23 68 10 46 -6 -9 -21 19
-50 92 -22 58 -41 112 -41 121 0 8 10 17 23 19 12 2 -27 4 -88 4 -60 1 -102
-1 -93 -4z"/>
<path d="M1064 996 c-18 -8 -34 -18 -38 -24 -3 -5 11 -1 31 9 51 26 96 24 130
-5 27 -24 28 -27 30 -142 3 -131 13 -158 63 -169 42 -9 106 3 122 23 12 15 11
16 -4 3 -15 -11 -21 -11 -33 -1 -11 10 -15 36 -15 112 0 126 -14 162 -72 188
-51 23 -167 26 -214 6z"/>
<path d="M1468 1003 c-16 -4 -18 -21 -18 -169 l0 -164 71 0 71 0 -4 168 -3
167 -50 2 c-27 0 -58 -1 -67 -4z"/>
<path d="M1628 988 c-13 -13 -19 -20 -14 -15 16 11 54 8 63 -5 4 -7 10 -94 13
-193 5 -195 12 -221 63 -259 21 -16 45 -21 100 -22 40 -1 57 0 39 3 -60 8 -66
32 -72 253 -5 208 -10 228 -57 249 -42 19 -109 13 -135 -11z"/>
<path d="M656 885 c-9 -26 -7 -32 5 -12 6 10 9 21 6 23 -2 3 -7 -2 -11 -11z"/>
<path d="M1048 863 c6 -2 18 -2 25 0 6 3 1 5 -13 5 -14 0 -19 -2 -12 -5z"/>
<path d="M1093 846 c-66 -16 -101 -39 -109 -73 -17 -65 43 -118 125 -110 33 4
51 13 75 38 17 18 21 25 9 15 -15 -12 -30 -16 -47 -12 -47 12 -42 100 7 138
26 21 14 22 -60 4z"/>
<path d="M636 835 c-9 -26 -7 -32 5 -12 6 10 9 21 6 23 -2 3 -7 -2 -11 -11z"/>
<path d="M27 812 c-19 -21 -22 -64 -7 -93 12 -22 61 -49 87 -48 15 0 14 2 -3
9 -36 14 -39 31 -11 52 29 21 36 65 15 86 -18 18 -63 14 -81 -6z"/>
<path d="M40 656 c0 -2 8 -10 18 -17 15 -13 16 -12 3 4 -13 16 -21 21 -21 13z"/>
<path d="M1912 634 c-31 -22 -29 -67 4 -89 15 -10 23 -22 20 -31 -8 -22 12
-17 39 11 31 30 33 77 5 105 -24 24 -38 25 -68 4z"/>
<path d="M1650 636 c0 -2 7 -7 16 -10 8 -3 12 -2 9 4 -6 10 -25 14 -25 6z"/>
<path d="M1433 563 c15 -4 17 -18 17 -119 0 -95 3 -114 15 -114 13 0 15 20 15
120 l0 120 -32 -1 c-18 -1 -25 -3 -15 -6z"/>
<path d="M248 541 c10 -6 13 -34 10 -110 -3 -95 -2 -101 17 -101 18 0 20 5 17
55 -4 53 -3 55 22 55 29 0 66 -32 66 -57 0 -9 -7 -25 -17 -35 -18 -20 -4 -25
28 -8 28 15 25 64 -5 88 -24 18 -24 19 -5 35 24 21 24 42 -1 67 -16 16 -33 20
-82 20 -38 0 -58 -4 -50 -9z m113 -22 c18 -34 -3 -69 -41 -69 -29 0 -30 2 -30
45 0 43 1 45 30 45 20 0 33 -7 41 -21z"/>
<path d="M1065 531 c-7 -12 12 -24 25 -16 11 7 4 25 -10 25 -5 0 -11 -4 -15
-9z"/>
<path d="M633 486 c-13 -14 -18 -26 -13 -26 6 0 10 -24 10 -54 0 -72 28 -103
70 -76 12 8 9 10 -12 10 l-27 0 -3 86 -3 86 -22 -26z"/>
<path d="M473 458 c-28 -14 -43 -55 -31 -89 19 -57 109 -61 136 -6 14 28 8 70
-12 87 -20 16 -69 20 -93 8z m71 -20 c32 -45 11 -108 -34 -108 -22 0 -50 36
-50 65 0 29 28 65 50 65 10 0 26 -10 34 -22z"/>
<path d="M746 454 c-21 -21 -20 -27 3 -13 33 21 48 5 49 -50 2 -45 -1 -51 -18
-51 -29 0 -38 30 -15 46 22 16 12 18 -16 4 -25 -14 -25 -57 1 -65 10 -3 28 -2
38 4 13 7 22 7 30 -1 9 -9 15 -9 24 0 9 9 9 12 0 12 -8 0 -12 18 -12 49 0 72
-44 106 -84 65z"/>
<path d="M878 400 c3 -57 7 -70 20 -70 14 0 17 10 17 51 0 55 17 78 49 66 12
-5 16 -20 16 -62 0 -42 3 -55 15 -55 11 0 15 12 15 48 0 77 -39 114 -82 75
-17 -15 -18 -15 -18 0 0 10 -8 17 -17 17 -16 0 -18 -9 -15 -70z"/>
<path d="M1065 400 c0 -55 3 -70 15 -70 12 0 14 13 12 70 -5 96 -27 96 -27 0z"/>
<path d="M1165 445 c-27 -26 -33 -71 -12 -98 20 -28 69 -32 97 -8 l25 21 -32
-17 c-30 -17 -32 -17 -51 0 -44 40 -32 110 20 120 l23 4 -23 2 c-13 0 -34 -10
-47 -24z"/>
<path d="M1306 454 c-21 -21 -20 -27 3 -13 33 21 48 5 50 -51 1 -47 -1 -51
-21 -48 -28 4 -33 21 -13 42 19 18 12 21 -16 6 -42 -23 -9 -82 35 -62 17 7 27
7 35 -1 8 -8 14 -8 23 1 9 9 9 12 0 12 -8 0 -12 18 -12 49 0 53 -17 81 -50 81
-10 0 -26 -7 -34 -16z"/>
<path d="M1542 458 c-22 -22 -13 -48 23 -69 40 -24 45 -46 13 -59 -17 -6 -18
-9 -6 -9 20 -1 48 25 48 44 0 17 -25 42 -50 50 -25 8 -26 42 -2 48 13 4 13 5
2 6 -9 0 -21 -4 -28 -11z"/>
<path d="M1596 462 c-2 -4 -1 -14 5 -22 7 -12 9 -10 9 8 0 23 -5 28 -14 14z"/>
<path d="M1246 445 c4 -8 8 -15 10 -15 2 0 4 7 4 15 0 8 -4 15 -10 15 -5 0 -7
-7 -4 -15z"/>
<path d="M1520 350 c0 -11 7 -20 15 -20 13 0 14 4 5 20 -6 11 -13 20 -15 20
-3 0 -5 -9 -5 -20z"/>
</g>
</svg>
